<svg id="Capa_1"
 data-name="Capa 1"
  xmlns="http://www.w3.org/2000/svg"
   viewBox="0 0 381.17 68.88">
   <defs>
   <style>.cls-1{fill:#FFFFFF;}.cls-2{fill:#1f140f;}</style>
   </defs>
   <path 
    class="cls-1"
    d="M492.42,369a17.91,17.91,0,0,1,5.72-13.41c3.84-3.7,9.76-5.53,17.77-5.53a38.62,38.62,0,0,1,17.31,4.08v9.15A30.65,30.65,0,0,0,517,358.81q-15.22,0-15.23,10.19a5.91,5.91,0,0,0,2.68,4.77A20.93,20.93,0,0,0,511.1,377c2.6.82,5.48,1.87,8.61,3.16a87.67,87.67,0,0,1,8.62,4.12,18.47,18.47,0,0,1,6.59,6.4,18.12,18.12,0,0,1,2.65,9.84q0,8.61-6.45,13.47t-17.81,4.84a45.48,45.48,0,0,1-20-4.82v-9.65a36.39,36.39,0,0,0,19.17,5.7q15.66,0,15.71-9.54a9.89,9.89,0,0,0-2.65-7,15.14,15.14,0,0,0-6.58-4.17l-8.64-2.94c-3.14-1.09-6-2.21-8.64-3.35a16.19,16.19,0,0,1-6.6-5.33A14.47,14.47,0,0,1,492.42,369Z"
     transform="translate(-492.42 -350.06)"/>
    <path 
    class="cls-1" 
    d="M542.07,393.52q0-26.55,22.18-26.54h.1q10.1,0,16.12,6.6t6,17.65c0,2.39-.09,4.69-.29,6.9H551.47q1.65,12.94,14.16,12.94,10.18,0,17.37-3.79v8.38a44.71,44.71,0,0,1-17.57,3.28h-.29a29,29,0,0,1-8.17-1.11,24.1,24.1,0,0,1-7.27-3.68,16.69,16.69,0,0,1-5.59-7.86A35.26,35.26,0,0,1,542.07,393.52Zm9.25-3.66h25.83a23.4,23.4,0,0,0-.87-4.8,21.31,21.31,0,0,0-2-4.65,9.78,9.78,0,0,0-3.91-3.76,12.51,12.51,0,0,0-6.11-1.4q-6.35,0-9.31,3.27T551.32,389.86Z"
     transform="translate(-492.42 -350.06)"/>
    <path 
    class="cls-1"
     d="M585.81,367.77h9.85L609.77,407,624,367.77h9.85L614.5,418.05h-9.45Z"
     transform="translate(-492.42 -350.06)"/>
     <path 
     class="cls-1" 
     d="M639,360v-9.75h9.8V360Zm.31,58.05V367.77h9.2v50.28Z" 
     transform="translate(-492.42 -350.06)"/>
     <path 
     class="cls-2"
      d="M659.18,418.05V371.89a46.53,46.53,0,0,1,20.89-5c5.45,0,9.93,1.25,13.45,3.79a49.2,49.2,0,0,1,18.42-3.79c6.37,0,11.32,1.64,14.88,5s5.34,7.93,5.34,13.88v32.31H723V385.1a10.9,10.9,0,0,0-2.12-7c-1.41-1.76-4.18-2.65-8.29-2.65a35.45,35.45,0,0,0-13.49,2.8,21,21,0,0,1,1.17,7.18v32.62H691V385.19a9.89,9.89,0,0,0-2.35-7c-1.57-1.72-4.66-2.57-9.29-2.57a41.53,41.53,0,0,0-11,1.53v40.88Z" 
      transform="translate(-492.42 -350.06)"/>
      <path class="cls-2" 
      d="M737.85,402.14a13.24,13.24,0,0,1,6.32-11.62q6.3-4.2,17.38-4.19a71.38,71.38,0,0,1,9.13.57c-.2-4.22-1.34-7.27-3.46-9.08s-5.58-2.76-10.38-2.76a43,43,0,0,0-13.92,2.51v-7.88A42.23,42.23,0,0,1,758.1,367c7,0,12.43,1.82,16.24,5.43s5.74,8.85,5.74,15.63v14.52a16.57,16.57,0,0,1-.33,3.21,17.06,17.06,0,0,1-1.53,4.12,14.17,14.17,0,0,1-3.26,4.38,17.78,17.78,0,0,1-6.24,3.22,31.21,31.21,0,0,1-9.57,1.36,30.72,30.72,0,0,1-9.77-1.42,18.21,18.21,0,0,1-6.3-3.29,13.65,13.65,0,0,1-3.37-4.43,16.45,16.45,0,0,1-1.54-4.23A18.15,18.15,0,0,1,737.85,402.14Zm9.21-.07q0,8.51,12.09,8.51h.13q11.41,0,11.4-8.18v-8.11a56.6,56.6,0,0,0-8.75-.63,26.07,26.07,0,0,0-4.21.35,39,39,0,0,0-4.77,1.16,9.14,9.14,0,0,0-4.21,2.59A6.18,6.18,0,0,0,747.06,402.07Z" 
      transform="translate(-492.42 -350.06)"/>
      <path class="cls-2"
       d="M781.23,375.64v-7.87H790V352.86h9.19v14.91h13.4v7.87h-13.4V404.7c0,3.93,2.48,5.88,7.44,5.88h.09a11.28,11.28,0,0,0,5.87-1.46v8.33a18.37,18.37,0,0,1-6.9,1.4h-.24a17.74,17.74,0,0,1-3.9-.46,24.79,24.79,0,0,1-4.94-1.73,10.77,10.77,0,0,1-4.75-4.52,15.72,15.72,0,0,1-1.86-8V375.64Z" 
       transform="translate(-492.42 -350.06)"/>
       <path class="cls-2"
        d="M818.67,360v-9.75h9.79V360Zm.29,58.05V367.77h9.21v50.28Z"
         transform="translate(-492.42 -350.06)"/>
         <path class="cls-2" 
         d="M841.33,412.2c-4-4.46-6-10.86-6-19.3s2-14.84,6-19.26,9.79-6.66,17.45-6.66a40.27,40.27,0,0,1,14.8,2.8v8.78a31.4,31.4,0,0,0-13.84-3.31h-.17q-6.95,0-10.87,3.58c-2.64,2.38-3.94,7.09-3.94,14.07a30.77,30.77,0,0,0,1.15,9.24,10.74,10.74,0,0,0,3.44,5.47A12.6,12.6,0,0,0,854,410a23.81,23.81,0,0,0,5.6.59,32.41,32.41,0,0,0,14-3.2v8.69a40.67,40.67,0,0,1-14.8,2.78Q847.29,418.85,841.33,412.2Z"
          transform="translate(-492.42 -350.06)"/>
          </svg>